<svg width="62" height="62" viewBox="0 0 62 62" fill="none" xmlns="http://www.w3.org/2000/svg">
<path fill-rule="evenodd" clip-rule="evenodd" d="M26.4167 56.25V50.5H25.25V56.25C25.25 56.5663 25.5171 56.8333 25.8333 56.8333C26.1496 56.8333 26.4167 56.5663 26.4167 56.25ZM28.4167 48.5H23.25V56.25C23.25 57.6708 24.4125 58.8333 25.8333 58.8333C27.2542 58.8333 28.4167 57.6708 28.4167 56.25V48.5Z" fill="white"/>
<path fill-rule="evenodd" clip-rule="evenodd" d="M36.75 56.25V50.5H35.5833V56.25C35.5833 56.5663 35.8504 56.8333 36.1667 56.8333C36.4829 56.8333 36.75 56.5663 36.75 56.25ZM38.75 48.5H33.5833V56.25C33.5833 57.6708 34.7458 58.8333 36.1667 58.8333C37.5875 58.8333 38.75 57.6708 38.75 56.25V48.5Z" fill="white"/>
<path fill-rule="evenodd" clip-rule="evenodd" d="M41.9167 41.3333V28.4167C41.9167 26.6796 40.4871 25.25 38.75 25.25H23.25C21.5129 25.25 20.0833 26.6796 20.0833 28.4167V41.3333C20.0833 43.0704 21.5129 44.5 23.25 44.5H38.75C40.4871 44.5 41.9167 43.0704 41.9167 41.3333ZM43.9167 41.3333V28.4167C43.9167 25.575 41.5917 23.25 38.75 23.25H23.25C20.4083 23.25 18.0833 25.575 18.0833 28.4167V41.3333C18.0833 44.175 20.4083 46.5 23.25 46.5H38.75C41.5917 46.5 43.9167 44.175 43.9167 41.3333Z" fill="white"/>
<path fill-rule="evenodd" clip-rule="evenodd" d="M10.9167 38.75V28.4167C10.9167 28.1004 10.6496 27.8334 10.3333 27.8334C10.0171 27.8334 9.75 28.1004 9.75 28.4167V38.75C9.75 39.0663 10.0171 39.3334 10.3333 39.3334C10.6496 39.3334 10.9167 39.0663 10.9167 38.75ZM12.9167 38.75V28.4167C12.9167 26.9959 11.7542 25.8334 10.3333 25.8334C8.9125 25.8334 7.75 26.9959 7.75 28.4167V38.75C7.75 40.1709 8.9125 41.3334 10.3333 41.3334C11.7542 41.3334 12.9167 40.1709 12.9167 38.75Z" fill="white"/>
<path fill-rule="evenodd" clip-rule="evenodd" d="M52.25 38.75V28.4167C52.25 28.1004 51.9829 27.8334 51.6667 27.8334C51.3504 27.8334 51.0833 28.1004 51.0833 28.4167V38.75C51.0833 39.0663 51.3504 39.3334 51.6667 39.3334C51.9829 39.3334 52.25 39.0663 52.25 38.75ZM54.25 38.75V28.4167C54.25 26.9959 53.0875 25.8334 51.6667 25.8334C50.2458 25.8334 49.0833 26.9959 49.0833 28.4167V38.75C49.0833 40.1709 50.2458 41.3334 51.6667 41.3334C53.0875 41.3334 54.25 40.1709 54.25 38.75Z" fill="white"/>
<path fill-rule="evenodd" clip-rule="evenodd" d="M37.2001 17.6334C38.3688 17.6334 39.3333 16.6688 39.3333 15.5C39.3333 10.8954 35.6046 7.16669 31 7.16669C26.3954 7.16669 22.6667 10.8954 22.6667 15.5C22.6667 16.6688 23.6312 17.6334 24.7999 17.6334H37.2001ZM37.2001 19.6334H24.7999C22.5266 19.6334 20.6667 17.7734 20.6667 15.5C20.6667 9.79085 25.2908 5.16669 31 5.16669C36.7092 5.16669 41.3333 9.79085 41.3333 15.5C41.3333 17.7734 39.4734 19.6334 37.2001 19.6334Z" fill="white"/>
</svg>
