<svg width="52" height="52" viewBox="0 0 52 52" fill="none" xmlns="http://www.w3.org/2000/svg">
<path fill-rule="evenodd" clip-rule="evenodd" d="M20.8416 27.4958C21.2121 28.2368 20.9118 29.1378 20.1708 29.5083C18.9809 30.1032 17.9869 30.9858 17.2402 32.0939C17.0749 32.3494 17.0749 32.6506 17.2402 32.906C17.9869 34.0142 18.9809 34.8967 20.1708 35.4917C20.9118 35.8622 21.2121 36.7632 20.8416 37.5041C20.4711 38.2451 19.5701 38.5454 18.8292 38.175C17.1619 37.3413 15.7744 36.1033 14.7451 34.5717L14.7364 34.5587C13.9095 33.3004 13.9095 31.6996 14.7364 30.4412L14.7451 30.4282C15.7744 28.8967 17.1619 27.6587 18.8292 26.825C19.5701 26.4545 20.4711 26.7549 20.8416 27.4958Z" fill="white"/>
<path fill-rule="evenodd" clip-rule="evenodd" d="M31.6134 27.4958C31.9839 26.7549 32.8849 26.4545 33.6258 26.825C35.2931 27.6587 36.6806 28.8967 37.7099 30.4282L37.7186 30.4412C38.5455 31.6996 38.5455 33.3004 37.7186 34.5587L37.7099 34.5717C36.6806 36.1033 35.2931 37.3413 33.6258 38.175C32.8849 38.5454 31.9839 38.2451 31.6134 37.5041C31.2429 36.7632 31.5432 35.8622 32.2842 35.4917C33.4741 34.8967 34.4681 34.0142 35.2148 32.906C35.3801 32.6506 35.3801 32.3494 35.2148 32.0939C34.4681 30.9858 33.4741 30.1032 32.2842 29.5083C31.5432 29.1378 31.2429 28.2368 31.6134 27.4958Z" fill="white"/>
<path fill-rule="evenodd" clip-rule="evenodd" d="M6.79352 6.79349C9.64995 3.93705 13.9354 2.83331 19.5 2.83331H32.5C38.0646 2.83331 42.3501 3.93705 45.2065 6.79349C48.0629 9.64992 49.1667 13.9354 49.1667 19.5V32.5C49.1667 38.0646 48.0629 42.35 45.2065 45.2065C42.3501 48.0629 38.0646 49.1666 32.5 49.1666H19.5C13.9354 49.1666 9.64995 48.0629 6.79352 45.2065C3.93708 42.35 2.83334 38.0646 2.83334 32.5V28.1666C2.83334 27.3382 3.50492 26.6666 4.33334 26.6666C5.16177 26.6666 5.83334 27.3382 5.83334 28.1666V32.5C5.83334 37.7687 6.89627 41.0666 8.91484 43.0852C10.9334 45.1037 14.2313 46.1666 19.5 46.1666H32.5C37.7687 46.1666 41.0666 45.1037 43.0852 43.0852C45.1037 41.0666 46.1667 37.7687 46.1667 32.5V19.5C46.1667 14.2313 45.1037 10.9334 43.0852 8.91481C41.0666 6.89624 37.7687 5.83331 32.5 5.83331H19.5C14.2313 5.83331 10.9334 6.89624 8.91484 8.91481C6.89627 10.9334 5.83334 14.2313 5.83334 19.5C5.83334 20.3284 5.16177 21 4.33334 21C3.50492 21 2.83334 20.3284 2.83334 19.5C2.83334 13.9354 3.93708 9.64992 6.79352 6.79349Z" fill="white"/>
<path fill-rule="evenodd" clip-rule="evenodd" d="M47.975 17.3325C47.9754 18.161 47.3042 18.8329 46.4758 18.8333L4.83245 18.855C4.00402 18.8554 3.3321 18.1842 3.33167 17.3558C3.33123 16.5273 4.00246 15.8554 4.83088 15.855L46.4742 15.8333C47.3026 15.8329 47.9746 16.5041 47.975 17.3325Z" fill="white"/>
</svg>
