<svg width="55" height="55" viewBox="0 0 55 55" fill="none" xmlns="http://www.w3.org/2000/svg">
<path fill-rule="evenodd" clip-rule="evenodd" d="M17.2916 17.2966H5.1751C3.9169 17.2966 2.82135 18.2181 2.61497 19.5105C1.79501 24.8031 1.79501 30.2018 2.61496 35.4944C2.82132 36.7869 3.91688 37.7083 5.1751 37.7083H9.16803V33.6054C9.16803 26.8653 14.6544 21.3789 21.3946 21.3789H33.5797V12.5476C33.5797 10.6733 35.08 9.17304 36.9543 9.17304H37.7033V5.1801C37.7033 3.92189 36.7819 2.82632 35.4894 2.61997C30.1968 1.80001 24.7981 1.80002 19.5054 2.61998C18.2131 2.82636 17.2916 3.92191 17.2916 5.1801V17.2966ZM35.7996 0.644162C30.3015 -0.208048 24.6935 -0.208048 19.1953 0.644162C16.9411 1.00154 15.2916 2.92587 15.2916 5.1801V15.2966H5.1751C2.92086 15.2966 0.996535 16.9461 0.639157 19.2003C-0.213052 24.6985 -0.213052 30.3065 0.639157 35.8046C0.996535 38.0589 2.92086 39.7083 5.1751 39.7083H9.7935C10.5632 39.7083 11.168 39.1035 11.168 38.3338V33.6054C11.168 27.9698 15.759 23.3789 21.3946 23.3789H33.6004C34.7 23.3789 35.5797 22.4992 35.5797 21.3996V12.5476C35.5797 11.7778 36.1845 11.173 36.9543 11.173H38.3288C39.0985 11.173 39.7033 10.5682 39.7033 9.79851V5.1801C39.7033 2.92587 38.0539 1.00154 35.7996 0.644162ZM19.97 10.5907C19.2608 9.88156 18.7073 8.84542 18.7073 7.65424C18.7073 6.46153 19.2506 5.41916 19.9641 4.69962C20.6756 3.98215 21.7142 3.42751 22.9065 3.42751C23.9656 3.42751 25.0699 3.86931 25.8359 4.62141C26.6429 5.38873 27.1333 6.54009 27.1333 7.65424C27.1333 8.84659 26.5786 9.88522 25.8611 10.5967C25.1416 11.3102 24.0992 11.8535 22.9065 11.8535C21.7153 11.8535 20.6792 11.2999 19.97 10.5907ZM24.4461 6.05982C24.0612 5.67495 23.4563 5.42751 22.9065 5.42751C21.7794 5.42751 20.7073 6.49963 20.7073 7.65424C20.7073 8.78136 21.7794 9.85346 22.9065 9.85346C24.0611 9.85346 25.1333 8.78136 25.1333 7.65424C25.1333 7.07694 24.8584 6.44469 24.4461 6.05982Z" fill="white"/>
<path fill-rule="evenodd" clip-rule="evenodd" d="M37.7034 37.7084H49.8199C51.0782 37.7084 52.1738 36.7868 52.3801 35.4943C53.2 30.2018 53.2 24.8033 52.3801 19.5108C52.1738 18.2183 51.0782 17.2967 49.8199 17.2967H41.7034V21.3996C41.7034 25.8522 38.0922 29.5025 33.6004 29.5025H21.3946C19.1178 29.5025 17.2917 31.3287 17.2917 33.6055V49.8249C17.2917 51.0832 18.2132 52.1788 19.5058 52.3851C24.7982 53.205 30.1968 53.205 35.4892 52.3851C36.7818 52.1788 37.7034 51.0832 37.7034 49.8249V37.7084ZM35.7996 54.3609C30.3015 55.2131 24.6935 55.2131 19.1954 54.3609C16.9411 54.0035 15.2917 52.0792 15.2917 49.8249V33.6055C15.2917 30.2241 18.0132 27.5025 21.3946 27.5025H33.6004C36.9818 27.5025 39.7034 24.7535 39.7034 21.3996V16.6712C39.7034 15.9015 40.3082 15.2967 41.0779 15.2967H49.8199C52.0741 15.2967 53.9985 16.9462 54.3558 19.2004C55.208 24.6985 55.208 30.3066 54.3558 35.8047C53.9985 38.0589 52.0741 39.7084 49.8199 39.7084H39.7034V49.8249C39.7034 52.0792 38.0539 54.0035 35.7996 54.3609ZM34.9889 44.2633L34.9926 44.2667C35.8239 45.0427 36.3152 46.2381 36.3152 47.3233V47.3465L36.3147 47.3698C36.2873 48.5461 35.7511 49.5792 35.0343 50.302C34.321 51.0212 33.2828 51.5775 32.0885 51.5775C30.901 51.5775 29.86 51.0272 29.1441 50.3172C28.4259 49.605 27.8617 48.56 27.8617 47.3508C27.8617 46.157 28.406 45.112 29.1279 44.3902C29.8498 43.6683 30.8947 43.1241 32.0885 43.1241C33.1149 43.1241 34.2335 43.5619 34.9889 44.2633ZM29.8617 47.3508C29.8617 48.5054 30.9614 49.5775 32.0885 49.5775C33.2156 49.5775 34.2877 48.5054 34.3152 47.3233C34.3152 46.7735 34.0403 46.1137 33.6279 45.7288C33.2431 45.3715 32.6108 45.1241 32.0885 45.1241C30.9339 45.1241 29.8617 46.1962 29.8617 47.3508Z" fill="white"/>
</svg>
